<svg width="420" height="178" viewBox="0 0 420 178" fill="none" xmlns="http://www.w3.org/2000/svg">
<path d="M46.4333 46.1C53.9778 46.1 60.4722 47.4611 65.9167 50.1833C71.4389 52.8278 75.6389 56.6 78.5167 61.5C81.4722 66.3222 82.95 72 82.95 78.5333C82.95 80.7889 82.6778 83.6278 82.1333 87.05C80.7333 95.0611 77.7 102.178 73.0333 108.4C68.4444 114.622 62.5722 119.444 55.4167 122.867C48.3389 126.289 40.5222 128 31.9667 128H1.28333L15.75 46.1H46.4333ZM33.7167 110.967C41.2611 110.967 47.5222 108.867 52.5 104.667C57.4778 100.467 60.5889 94.5944 61.8333 87.05C62.2222 84.7167 62.4167 82.7722 62.4167 81.2167C62.4167 75.4611 60.6667 71.0278 57.1667 67.9167C53.6667 64.7278 48.6889 63.1333 42.2333 63.1333H32.6667L24.2667 110.967H33.7167ZM106.116 46.1H126.532L107.982 77.3667H94.5656L106.116 46.1ZM154.352 61.85L151.435 78.8833H178.152L175.468 93.9333H148.752L145.485 112.25H175.702L172.902 128H122.735L137.202 46.1H187.368L184.568 61.85H154.352ZM221.087 41.6667L205.804 128H185.854L201.137 41.6667H221.087ZM255.495 41.6667L240.211 128H220.261L235.545 41.6667H255.495ZM295.269 61.9667C303.669 61.9667 310.319 64.2611 315.219 68.85C320.197 73.3611 322.685 79.5444 322.685 87.4C322.685 89.9667 322.491 92.2611 322.102 94.2833C321.791 96.0722 321.324 97.9778 320.702 100H275.552C275.474 100.467 275.435 101.206 275.435 102.217C275.435 105.639 276.369 108.244 278.235 110.033C280.102 111.822 282.591 112.717 285.702 112.717C290.68 112.717 294.491 110.617 297.135 106.417H318.369C315.569 113.028 311.019 118.433 304.719 122.633C298.419 126.833 291.341 128.933 283.485 128.933C275.085 128.933 268.358 126.6 263.302 121.933C258.324 117.267 255.835 110.928 255.835 102.917C255.835 100.506 256.069 98.0167 256.535 95.45C257.702 88.6833 260.113 82.7722 263.769 77.7167C267.424 72.6611 271.974 68.7722 277.419 66.05C282.863 63.3278 288.813 61.9667 295.269 61.9667ZM302.502 89.85C302.658 88.7611 302.735 88.0222 302.735 87.6333C302.735 84.5222 301.763 82.15 299.819 80.5167C297.874 78.8056 295.308 77.95 292.119 77.95C288.697 77.95 285.663 79 283.019 81.1C280.452 83.1222 278.585 86.0389 277.419 89.85H302.502ZM377.777 62.2C384.31 62.2 389.443 64.0278 393.177 67.6833C396.91 71.3389 398.777 76.4333 398.777 82.9667C398.777 85.1444 398.543 87.4778 398.077 89.9667L391.31 128H371.477L377.777 92.65C378.01 91.3278 378.127 90.1611 378.127 89.15C378.127 85.8833 377.193 83.3556 375.327 81.5667C373.538 79.7778 371.01 78.8833 367.743 78.8833C363.854 78.8833 360.588 80.0889 357.943 82.5C355.299 84.9111 353.588 88.2944 352.81 92.65V92.0667L346.51 128H326.56L337.993 62.9H357.943L356.427 71.65C358.993 68.7722 362.104 66.4778 365.76 64.7667C369.493 63.0556 373.499 62.2 377.777 62.2Z" fill="white"/>
<path d="M10.3271 162.592H6.21387V174H4.53516V162.592H0.430664V161.203H10.3271V162.592ZM15.0381 174.176C13.749 174.176 12.7002 173.754 11.8916 172.91C11.083 172.061 10.6787 170.927 10.6787 169.509V169.21C10.6787 168.267 10.8574 167.426 11.2148 166.688C11.5781 165.943 12.082 165.363 12.7266 164.947C13.377 164.525 14.0801 164.314 14.8359 164.314C16.0723 164.314 17.0332 164.722 17.7188 165.536C18.4043 166.351 18.7471 167.517 18.7471 169.034V169.711H12.3047C12.3281 170.648 12.6006 171.407 13.1221 171.987C13.6494 172.562 14.3174 172.849 15.126 172.849C15.7002 172.849 16.1865 172.731 16.585 172.497C16.9834 172.263 17.332 171.952 17.6309 171.565L18.624 172.339C17.8271 173.563 16.6318 174.176 15.0381 174.176ZM14.8359 165.65C14.1797 165.65 13.6289 165.891 13.1836 166.371C12.7383 166.846 12.4629 167.514 12.3574 168.375H17.1211V168.252C17.0742 167.426 16.8516 166.787 16.4531 166.336C16.0547 165.879 15.5156 165.65 14.8359 165.65ZM22.166 164.49L22.21 165.545C22.9072 164.725 23.8477 164.314 25.0312 164.314C26.3613 164.314 27.2666 164.824 27.7471 165.844C28.0635 165.387 28.4736 165.018 28.9775 164.736C29.4873 164.455 30.0879 164.314 30.7793 164.314C32.8652 164.314 33.9258 165.419 33.9609 167.628V174H32.335V167.725C32.335 167.045 32.1797 166.538 31.8691 166.204C31.5586 165.864 31.0371 165.694 30.3047 165.694C29.7012 165.694 29.2002 165.876 28.8018 166.239C28.4033 166.597 28.1719 167.08 28.1074 167.689V174H26.4727V167.769C26.4727 166.386 25.7959 165.694 24.4424 165.694C23.376 165.694 22.6465 166.148 22.2539 167.057V174H20.6279V164.49H22.166ZM35.9912 169.157C35.9912 168.226 36.1729 167.388 36.5361 166.644C36.9053 165.899 37.415 165.325 38.0654 164.921C38.7217 164.517 39.4688 164.314 40.3066 164.314C41.6016 164.314 42.6475 164.763 43.4443 165.659C44.2471 166.556 44.6484 167.748 44.6484 169.236V169.351C44.6484 170.276 44.4697 171.108 44.1123 171.847C43.7607 172.579 43.2539 173.15 42.5918 173.561C41.9355 173.971 41.1797 174.176 40.3242 174.176C39.0352 174.176 37.9893 173.728 37.1865 172.831C36.3896 171.935 35.9912 170.748 35.9912 169.271V169.157ZM37.626 169.351C37.626 170.405 37.8691 171.252 38.3555 171.891C38.8477 172.529 39.5039 172.849 40.3242 172.849C41.1504 172.849 41.8066 172.526 42.293 171.882C42.7793 171.231 43.0225 170.323 43.0225 169.157C43.0225 168.114 42.7734 167.271 42.2754 166.626C41.7832 165.976 41.127 165.65 40.3066 165.65C39.5039 165.65 38.8564 165.97 38.3643 166.608C37.8721 167.247 37.626 168.161 37.626 169.351ZM52.2246 171.478C52.2246 171.038 52.0576 170.698 51.7236 170.458C51.3955 170.212 50.8184 170.001 49.9922 169.825C49.1719 169.649 48.5186 169.438 48.0322 169.192C47.5518 168.946 47.1943 168.653 46.96 168.313C46.7314 167.974 46.6172 167.569 46.6172 167.101C46.6172 166.321 46.9453 165.662 47.6016 165.123C48.2637 164.584 49.1074 164.314 50.1328 164.314C51.2109 164.314 52.084 164.593 52.752 165.149C53.4258 165.706 53.7627 166.418 53.7627 167.285H52.1279C52.1279 166.84 51.9375 166.456 51.5566 166.134C51.1816 165.812 50.707 165.65 50.1328 165.65C49.541 165.65 49.0781 165.779 48.7441 166.037C48.4102 166.295 48.2432 166.632 48.2432 167.048C48.2432 167.44 48.3984 167.736 48.709 167.936C49.0195 168.135 49.5791 168.325 50.3877 168.507C51.2021 168.688 51.8613 168.905 52.3652 169.157C52.8691 169.409 53.2412 169.714 53.4814 170.071C53.7275 170.423 53.8506 170.854 53.8506 171.363C53.8506 172.213 53.5107 172.896 52.8311 173.411C52.1514 173.921 51.2695 174.176 50.1855 174.176C49.4238 174.176 48.75 174.041 48.1641 173.771C47.5781 173.502 47.1182 173.127 46.7842 172.646C46.4561 172.16 46.292 171.636 46.292 171.073H47.918C47.9473 171.618 48.1641 172.052 48.5684 172.374C48.9785 172.69 49.5176 172.849 50.1855 172.849C50.8008 172.849 51.293 172.726 51.6621 172.479C52.0371 172.228 52.2246 171.894 52.2246 171.478ZM66.3047 174C66.2109 173.812 66.1348 173.479 66.0762 172.998C65.3203 173.783 64.418 174.176 63.3691 174.176C62.4316 174.176 61.6611 173.912 61.0576 173.385C60.46 172.852 60.1611 172.178 60.1611 171.363C60.1611 170.373 60.5361 169.605 61.2861 169.061C62.042 168.51 63.1025 168.234 64.4678 168.234H66.0498V167.487C66.0498 166.919 65.8799 166.468 65.54 166.134C65.2002 165.794 64.6992 165.624 64.0371 165.624C63.457 165.624 62.9707 165.771 62.5781 166.063C62.1855 166.356 61.9893 166.711 61.9893 167.127H60.3545C60.3545 166.652 60.5215 166.195 60.8555 165.756C61.1953 165.311 61.6523 164.959 62.2266 164.701C62.8066 164.443 63.4424 164.314 64.1338 164.314C65.2295 164.314 66.0879 164.59 66.709 165.141C67.3301 165.686 67.6523 166.438 67.6758 167.399V171.776C67.6758 172.649 67.7871 173.344 68.0098 173.859V174H66.3047ZM63.6064 172.761C64.1162 172.761 64.5996 172.629 65.0566 172.365C65.5137 172.102 65.8447 171.759 66.0498 171.337V169.386H64.7754C62.7832 169.386 61.7871 169.969 61.7871 171.135C61.7871 171.645 61.957 172.043 62.2969 172.33C62.6367 172.617 63.0732 172.761 63.6064 172.761ZM76.2188 164.49L76.2627 165.545C76.96 164.725 77.9004 164.314 79.084 164.314C80.4141 164.314 81.3193 164.824 81.7998 165.844C82.1162 165.387 82.5264 165.018 83.0303 164.736C83.54 164.455 84.1406 164.314 84.832 164.314C86.918 164.314 87.9785 165.419 88.0137 167.628V174H86.3877V167.725C86.3877 167.045 86.2324 166.538 85.9219 166.204C85.6113 165.864 85.0898 165.694 84.3574 165.694C83.7539 165.694 83.2529 165.876 82.8545 166.239C82.4561 166.597 82.2246 167.08 82.1602 167.689V174H80.5254V167.769C80.5254 166.386 79.8486 165.694 78.4951 165.694C77.4287 165.694 76.6992 166.148 76.3066 167.057V174H74.6807V164.49H76.2188ZM96.3457 174C96.252 173.812 96.1758 173.479 96.1172 172.998C95.3613 173.783 94.459 174.176 93.4102 174.176C92.4727 174.176 91.7021 173.912 91.0986 173.385C90.501 172.852 90.2021 172.178 90.2021 171.363C90.2021 170.373 90.5771 169.605 91.3271 169.061C92.083 168.51 93.1436 168.234 94.5088 168.234H96.0908V167.487C96.0908 166.919 95.9209 166.468 95.5811 166.134C95.2412 165.794 94.7402 165.624 94.0781 165.624C93.498 165.624 93.0117 165.771 92.6191 166.063C92.2266 166.356 92.0303 166.711 92.0303 167.127H90.3955C90.3955 166.652 90.5625 166.195 90.8965 165.756C91.2363 165.311 91.6934 164.959 92.2676 164.701C92.8477 164.443 93.4834 164.314 94.1748 164.314C95.2705 164.314 96.1289 164.59 96.75 165.141C97.3711 165.686 97.6934 166.438 97.7168 167.399V171.776C97.7168 172.649 97.8281 173.344 98.0508 173.859V174H96.3457ZM93.6475 172.761C94.1572 172.761 94.6406 172.629 95.0977 172.365C95.5547 172.102 95.8857 171.759 96.0908 171.337V169.386H94.8164C92.8242 169.386 91.8281 169.969 91.8281 171.135C91.8281 171.645 91.998 172.043 92.3379 172.33C92.6777 172.617 93.1143 172.761 93.6475 172.761ZM102.032 174H100.406V164.49H102.032V174ZM100.274 161.968C100.274 161.704 100.354 161.481 100.512 161.3C100.676 161.118 100.916 161.027 101.232 161.027C101.549 161.027 101.789 161.118 101.953 161.3C102.117 161.481 102.199 161.704 102.199 161.968C102.199 162.231 102.117 162.451 101.953 162.627C101.789 162.803 101.549 162.891 101.232 162.891C100.916 162.891 100.676 162.803 100.512 162.627C100.354 162.451 100.274 162.231 100.274 161.968ZM104.212 169.157C104.212 168.226 104.394 167.388 104.757 166.644C105.126 165.899 105.636 165.325 106.286 164.921C106.942 164.517 107.689 164.314 108.527 164.314C109.822 164.314 110.868 164.763 111.665 165.659C112.468 166.556 112.869 167.748 112.869 169.236V169.351C112.869 170.276 112.69 171.108 112.333 171.847C111.981 172.579 111.475 173.15 110.812 173.561C110.156 173.971 109.4 174.176 108.545 174.176C107.256 174.176 106.21 173.728 105.407 172.831C104.61 171.935 104.212 170.748 104.212 169.271V169.157ZM105.847 169.351C105.847 170.405 106.09 171.252 106.576 171.891C107.068 172.529 107.725 172.849 108.545 172.849C109.371 172.849 110.027 172.526 110.514 171.882C111 171.231 111.243 170.323 111.243 169.157C111.243 168.114 110.994 167.271 110.496 166.626C110.004 165.976 109.348 165.65 108.527 165.65C107.725 165.65 107.077 165.97 106.585 166.608C106.093 167.247 105.847 168.161 105.847 169.351ZM119.505 165.949C119.259 165.908 118.992 165.888 118.705 165.888C117.639 165.888 116.915 166.342 116.534 167.25V174H114.908V164.49H116.49L116.517 165.589C117.05 164.739 117.806 164.314 118.784 164.314C119.101 164.314 119.341 164.355 119.505 164.438V165.949ZM128.61 171.794L130.966 164.49H132.627L129.217 174H127.978L124.532 164.49H126.193L128.61 171.794ZM139.922 174C139.828 173.812 139.752 173.479 139.693 172.998C138.938 173.783 138.035 174.176 136.986 174.176C136.049 174.176 135.278 173.912 134.675 173.385C134.077 172.852 133.778 172.178 133.778 171.363C133.778 170.373 134.153 169.605 134.903 169.061C135.659 168.51 136.72 168.234 138.085 168.234H139.667V167.487C139.667 166.919 139.497 166.468 139.157 166.134C138.817 165.794 138.316 165.624 137.654 165.624C137.074 165.624 136.588 165.771 136.195 166.063C135.803 166.356 135.606 166.711 135.606 167.127H133.972C133.972 166.652 134.139 166.195 134.473 165.756C134.812 165.311 135.27 164.959 135.844 164.701C136.424 164.443 137.06 164.314 137.751 164.314C138.847 164.314 139.705 164.59 140.326 165.141C140.947 165.686 141.27 166.438 141.293 167.399V171.776C141.293 172.649 141.404 173.344 141.627 173.859V174H139.922ZM137.224 172.761C137.733 172.761 138.217 172.629 138.674 172.365C139.131 172.102 139.462 171.759 139.667 171.337V169.386H138.393C136.4 169.386 135.404 169.969 135.404 171.135C135.404 171.645 135.574 172.043 135.914 172.33C136.254 172.617 136.69 172.761 137.224 172.761ZM148.438 165.949C148.192 165.908 147.926 165.888 147.639 165.888C146.572 165.888 145.849 166.342 145.468 167.25V174H143.842V164.49H145.424L145.45 165.589C145.983 164.739 146.739 164.314 147.718 164.314C148.034 164.314 148.274 164.355 148.438 164.438V165.949ZM151.708 174H150.082V164.49H151.708V174ZM149.95 161.968C149.95 161.704 150.029 161.481 150.188 161.3C150.352 161.118 150.592 161.027 150.908 161.027C151.225 161.027 151.465 161.118 151.629 161.3C151.793 161.481 151.875 161.704 151.875 161.968C151.875 162.231 151.793 162.451 151.629 162.627C151.465 162.803 151.225 162.891 150.908 162.891C150.592 162.891 150.352 162.803 150.188 162.627C150.029 162.451 149.95 162.231 149.95 161.968ZM158.265 174.176C156.976 174.176 155.927 173.754 155.118 172.91C154.31 172.061 153.905 170.927 153.905 169.509V169.21C153.905 168.267 154.084 167.426 154.441 166.688C154.805 165.943 155.309 165.363 155.953 164.947C156.604 164.525 157.307 164.314 158.062 164.314C159.299 164.314 160.26 164.722 160.945 165.536C161.631 166.351 161.974 167.517 161.974 169.034V169.711H155.531C155.555 170.648 155.827 171.407 156.349 171.987C156.876 172.562 157.544 172.849 158.353 172.849C158.927 172.849 159.413 172.731 159.812 172.497C160.21 172.263 160.559 171.952 160.857 171.565L161.851 172.339C161.054 173.563 159.858 174.176 158.265 174.176ZM158.062 165.65C157.406 165.65 156.855 165.891 156.41 166.371C155.965 166.846 155.689 167.514 155.584 168.375H160.348V168.252C160.301 167.426 160.078 166.787 159.68 166.336C159.281 165.879 158.742 165.65 158.062 165.65ZM163.468 169.166C163.468 167.707 163.813 166.535 164.505 165.65C165.196 164.76 166.102 164.314 167.221 164.314C168.334 164.314 169.216 164.695 169.866 165.457V160.5H171.492V174H169.998L169.919 172.98C169.269 173.777 168.363 174.176 167.203 174.176C166.102 174.176 165.202 173.725 164.505 172.822C163.813 171.92 163.468 170.742 163.468 169.289V169.166ZM165.094 169.351C165.094 170.429 165.316 171.272 165.762 171.882C166.207 172.491 166.822 172.796 167.607 172.796C168.639 172.796 169.392 172.333 169.866 171.407V167.039C169.38 166.143 168.633 165.694 167.625 165.694C166.828 165.694 166.207 166.002 165.762 166.617C165.316 167.232 165.094 168.144 165.094 169.351ZM179.895 174C179.801 173.812 179.725 173.479 179.666 172.998C178.91 173.783 178.008 174.176 176.959 174.176C176.021 174.176 175.251 173.912 174.647 173.385C174.05 172.852 173.751 172.178 173.751 171.363C173.751 170.373 174.126 169.605 174.876 169.061C175.632 168.51 176.692 168.234 178.058 168.234H179.64V167.487C179.64 166.919 179.47 166.468 179.13 166.134C178.79 165.794 178.289 165.624 177.627 165.624C177.047 165.624 176.561 165.771 176.168 166.063C175.775 166.356 175.579 166.711 175.579 167.127H173.944C173.944 166.652 174.111 166.195 174.445 165.756C174.785 165.311 175.242 164.959 175.816 164.701C176.396 164.443 177.032 164.314 177.724 164.314C178.819 164.314 179.678 164.59 180.299 165.141C180.92 165.686 181.242 166.438 181.266 167.399V171.776C181.266 172.649 181.377 173.344 181.6 173.859V174H179.895ZM177.196 172.761C177.706 172.761 178.189 172.629 178.646 172.365C179.104 172.102 179.435 171.759 179.64 171.337V169.386H178.365C176.373 169.386 175.377 169.969 175.377 171.135C175.377 171.645 175.547 172.043 175.887 172.33C176.227 172.617 176.663 172.761 177.196 172.761ZM183.419 169.166C183.419 167.707 183.765 166.535 184.456 165.65C185.147 164.76 186.053 164.314 187.172 164.314C188.285 164.314 189.167 164.695 189.817 165.457V160.5H191.443V174H189.949L189.87 172.98C189.22 173.777 188.314 174.176 187.154 174.176C186.053 174.176 185.153 173.725 184.456 172.822C183.765 171.92 183.419 170.742 183.419 169.289V169.166ZM185.045 169.351C185.045 170.429 185.268 171.272 185.713 171.882C186.158 172.491 186.773 172.796 187.559 172.796C188.59 172.796 189.343 172.333 189.817 171.407V167.039C189.331 166.143 188.584 165.694 187.576 165.694C186.779 165.694 186.158 166.002 185.713 166.617C185.268 167.232 185.045 168.144 185.045 169.351ZM197.921 174.176C196.632 174.176 195.583 173.754 194.774 172.91C193.966 172.061 193.562 170.927 193.562 169.509V169.21C193.562 168.267 193.74 167.426 194.098 166.688C194.461 165.943 194.965 165.363 195.609 164.947C196.26 164.525 196.963 164.314 197.719 164.314C198.955 164.314 199.916 164.722 200.602 165.536C201.287 166.351 201.63 167.517 201.63 169.034V169.711H195.188C195.211 170.648 195.483 171.407 196.005 171.987C196.532 172.562 197.2 172.849 198.009 172.849C198.583 172.849 199.069 172.731 199.468 172.497C199.866 172.263 200.215 171.952 200.514 171.565L201.507 172.339C200.71 173.563 199.515 174.176 197.921 174.176ZM197.719 165.65C197.062 165.65 196.512 165.891 196.066 166.371C195.621 166.846 195.346 167.514 195.24 168.375H200.004V168.252C199.957 167.426 199.734 166.787 199.336 166.336C198.938 165.879 198.398 165.65 197.719 165.65ZM207.589 169.166C207.589 167.707 207.935 166.535 208.626 165.65C209.317 164.76 210.223 164.314 211.342 164.314C212.455 164.314 213.337 164.695 213.987 165.457V160.5H215.613V174H214.119L214.04 172.98C213.39 173.777 212.484 174.176 211.324 174.176C210.223 174.176 209.323 173.725 208.626 172.822C207.935 171.92 207.589 170.742 207.589 169.289V169.166ZM209.215 169.351C209.215 170.429 209.438 171.272 209.883 171.882C210.328 172.491 210.943 172.796 211.729 172.796C212.76 172.796 213.513 172.333 213.987 171.407V167.039C213.501 166.143 212.754 165.694 211.746 165.694C210.949 165.694 210.328 166.002 209.883 166.617C209.438 167.232 209.215 168.144 209.215 169.351ZM222.091 174.176C220.802 174.176 219.753 173.754 218.944 172.91C218.136 172.061 217.731 170.927 217.731 169.509V169.21C217.731 168.267 217.91 167.426 218.268 166.688C218.631 165.943 219.135 165.363 219.779 164.947C220.43 164.525 221.133 164.314 221.889 164.314C223.125 164.314 224.086 164.722 224.771 165.536C225.457 166.351 225.8 167.517 225.8 169.034V169.711H219.357C219.381 170.648 219.653 171.407 220.175 171.987C220.702 172.562 221.37 172.849 222.179 172.849C222.753 172.849 223.239 172.731 223.638 172.497C224.036 172.263 224.385 171.952 224.684 171.565L225.677 172.339C224.88 173.563 223.685 174.176 222.091 174.176ZM221.889 165.65C221.232 165.65 220.682 165.891 220.236 166.371C219.791 166.846 219.516 167.514 219.41 168.375H224.174V168.252C224.127 167.426 223.904 166.787 223.506 166.336C223.107 165.879 222.568 165.65 221.889 165.65ZM240.188 169.351C240.188 170.798 239.856 171.964 239.194 172.849C238.532 173.733 237.636 174.176 236.505 174.176C235.351 174.176 234.442 173.81 233.78 173.077V177.656H232.154V164.49H233.64L233.719 165.545C234.381 164.725 235.301 164.314 236.479 164.314C237.621 164.314 238.523 164.745 239.186 165.606C239.854 166.468 240.188 167.666 240.188 169.201V169.351ZM238.562 169.166C238.562 168.094 238.333 167.247 237.876 166.626C237.419 166.005 236.792 165.694 235.995 165.694C235.011 165.694 234.272 166.131 233.78 167.004V171.548C234.267 172.415 235.011 172.849 236.013 172.849C236.792 172.849 237.41 172.541 237.867 171.926C238.33 171.305 238.562 170.385 238.562 169.166ZM246.858 165.949C246.612 165.908 246.346 165.888 246.059 165.888C244.992 165.888 244.269 166.342 243.888 167.25V174H242.262V164.49H243.844L243.87 165.589C244.403 164.739 245.159 164.314 246.138 164.314C246.454 164.314 246.694 164.355 246.858 164.438V165.949ZM247.755 169.157C247.755 168.226 247.937 167.388 248.3 166.644C248.669 165.899 249.179 165.325 249.829 164.921C250.485 164.517 251.232 164.314 252.07 164.314C253.365 164.314 254.411 164.763 255.208 165.659C256.011 166.556 256.412 167.748 256.412 169.236V169.351C256.412 170.276 256.233 171.108 255.876 171.847C255.524 172.579 255.018 173.15 254.355 173.561C253.699 173.971 252.943 174.176 252.088 174.176C250.799 174.176 249.753 173.728 248.95 172.831C248.153 171.935 247.755 170.748 247.755 169.271V169.157ZM249.39 169.351C249.39 170.405 249.633 171.252 250.119 171.891C250.611 172.529 251.268 172.849 252.088 172.849C252.914 172.849 253.57 172.526 254.057 171.882C254.543 171.231 254.786 170.323 254.786 169.157C254.786 168.114 254.537 167.271 254.039 166.626C253.547 165.976 252.891 165.65 252.07 165.65C251.268 165.65 250.62 165.97 250.128 166.608C249.636 167.247 249.39 168.161 249.39 169.351ZM258.056 169.166C258.056 167.707 258.401 166.535 259.093 165.65C259.784 164.76 260.689 164.314 261.809 164.314C262.922 164.314 263.804 164.695 264.454 165.457V160.5H266.08V174H264.586L264.507 172.98C263.856 173.777 262.951 174.176 261.791 174.176C260.689 174.176 259.79 173.725 259.093 172.822C258.401 171.92 258.056 170.742 258.056 169.289V169.166ZM259.682 169.351C259.682 170.429 259.904 171.272 260.35 171.882C260.795 172.491 261.41 172.796 262.195 172.796C263.227 172.796 263.979 172.333 264.454 171.407V167.039C263.968 166.143 263.221 165.694 262.213 165.694C261.416 165.694 260.795 166.002 260.35 166.617C259.904 167.232 259.682 168.144 259.682 169.351ZM274.482 173.06C273.85 173.804 272.921 174.176 271.696 174.176C270.683 174.176 269.909 173.883 269.376 173.297C268.849 172.705 268.582 171.832 268.576 170.678V164.49H270.202V170.634C270.202 172.075 270.788 172.796 271.96 172.796C273.202 172.796 274.028 172.333 274.438 171.407V164.49H276.064V174H274.518L274.482 173.06ZM280.749 162.188V164.49H282.524V165.747H280.749V171.645C280.749 172.025 280.828 172.312 280.986 172.506C281.145 172.693 281.414 172.787 281.795 172.787C281.982 172.787 282.24 172.752 282.568 172.682V174C282.141 174.117 281.725 174.176 281.32 174.176C280.594 174.176 280.046 173.956 279.677 173.517C279.308 173.077 279.123 172.453 279.123 171.645V165.747H277.392V164.49H279.123V162.188H280.749ZM283.825 169.157C283.825 168.226 284.007 167.388 284.37 166.644C284.739 165.899 285.249 165.325 285.899 164.921C286.556 164.517 287.303 164.314 288.141 164.314C289.436 164.314 290.481 164.763 291.278 165.659C292.081 166.556 292.482 167.748 292.482 169.236V169.351C292.482 170.276 292.304 171.108 291.946 171.847C291.595 172.579 291.088 173.15 290.426 173.561C289.77 173.971 289.014 174.176 288.158 174.176C286.869 174.176 285.823 173.728 285.021 172.831C284.224 171.935 283.825 170.748 283.825 169.271V169.157ZM285.46 169.351C285.46 170.405 285.703 171.252 286.189 171.891C286.682 172.529 287.338 172.849 288.158 172.849C288.984 172.849 289.641 172.526 290.127 171.882C290.613 171.231 290.856 170.323 290.856 169.157C290.856 168.114 290.607 167.271 290.109 166.626C289.617 165.976 288.961 165.65 288.141 165.65C287.338 165.65 286.69 165.97 286.198 166.608C285.706 167.247 285.46 168.161 285.46 169.351ZM300.059 171.478C300.059 171.038 299.892 170.698 299.558 170.458C299.229 170.212 298.652 170.001 297.826 169.825C297.006 169.649 296.353 169.438 295.866 169.192C295.386 168.946 295.028 168.653 294.794 168.313C294.565 167.974 294.451 167.569 294.451 167.101C294.451 166.321 294.779 165.662 295.436 165.123C296.098 164.584 296.941 164.314 297.967 164.314C299.045 164.314 299.918 164.593 300.586 165.149C301.26 165.706 301.597 166.418 301.597 167.285H299.962C299.962 166.84 299.771 166.456 299.391 166.134C299.016 165.812 298.541 165.65 297.967 165.65C297.375 165.65 296.912 165.779 296.578 166.037C296.244 166.295 296.077 166.632 296.077 167.048C296.077 167.44 296.232 167.736 296.543 167.936C296.854 168.135 297.413 168.325 298.222 168.507C299.036 168.688 299.695 168.905 300.199 169.157C300.703 169.409 301.075 169.714 301.315 170.071C301.562 170.423 301.685 170.854 301.685 171.363C301.685 172.213 301.345 172.896 300.665 173.411C299.985 173.921 299.104 174.176 298.02 174.176C297.258 174.176 296.584 174.041 295.998 173.771C295.412 173.502 294.952 173.127 294.618 172.646C294.29 172.16 294.126 171.636 294.126 171.073H295.752C295.781 171.618 295.998 172.052 296.402 172.374C296.812 172.69 297.352 172.849 298.02 172.849C298.635 172.849 299.127 172.726 299.496 172.479C299.871 172.228 300.059 171.894 300.059 171.478ZM307.872 169.166C307.872 167.707 308.218 166.535 308.909 165.65C309.601 164.76 310.506 164.314 311.625 164.314C312.738 164.314 313.62 164.695 314.271 165.457V160.5H315.896V174H314.402L314.323 172.98C313.673 173.777 312.768 174.176 311.607 174.176C310.506 174.176 309.606 173.725 308.909 172.822C308.218 171.92 307.872 170.742 307.872 169.289V169.166ZM309.498 169.351C309.498 170.429 309.721 171.272 310.166 171.882C310.611 172.491 311.227 172.796 312.012 172.796C313.043 172.796 313.796 172.333 314.271 171.407V167.039C313.784 166.143 313.037 165.694 312.029 165.694C311.232 165.694 310.611 166.002 310.166 166.617C309.721 167.232 309.498 168.144 309.498 169.351ZM324.299 174C324.205 173.812 324.129 173.479 324.07 172.998C323.314 173.783 322.412 174.176 321.363 174.176C320.426 174.176 319.655 173.912 319.052 173.385C318.454 172.852 318.155 172.178 318.155 171.363C318.155 170.373 318.53 169.605 319.28 169.061C320.036 168.51 321.097 168.234 322.462 168.234H324.044V167.487C324.044 166.919 323.874 166.468 323.534 166.134C323.194 165.794 322.693 165.624 322.031 165.624C321.451 165.624 320.965 165.771 320.572 166.063C320.18 166.356 319.983 166.711 319.983 167.127H318.349C318.349 166.652 318.516 166.195 318.85 165.756C319.189 165.311 319.646 164.959 320.221 164.701C320.801 164.443 321.437 164.314 322.128 164.314C323.224 164.314 324.082 164.59 324.703 165.141C325.324 165.686 325.646 166.438 325.67 167.399V171.776C325.67 172.649 325.781 173.344 326.004 173.859V174H324.299ZM321.601 172.761C322.11 172.761 322.594 172.629 323.051 172.365C323.508 172.102 323.839 171.759 324.044 171.337V169.386H322.77C320.777 169.386 319.781 169.969 319.781 171.135C319.781 171.645 319.951 172.043 320.291 172.33C320.631 172.617 321.067 172.761 321.601 172.761ZM337.28 165.949C337.034 165.908 336.768 165.888 336.48 165.888C335.414 165.888 334.69 166.342 334.31 167.25V174H332.684V164.49H334.266L334.292 165.589C334.825 164.739 335.581 164.314 336.56 164.314C336.876 164.314 337.116 164.355 337.28 164.438V165.949ZM342.554 174.176C341.265 174.176 340.216 173.754 339.407 172.91C338.599 172.061 338.194 170.927 338.194 169.509V169.21C338.194 168.267 338.373 167.426 338.73 166.688C339.094 165.943 339.598 165.363 340.242 164.947C340.893 164.525 341.596 164.314 342.352 164.314C343.588 164.314 344.549 164.722 345.234 165.536C345.92 166.351 346.263 167.517 346.263 169.034V169.711H339.82C339.844 170.648 340.116 171.407 340.638 171.987C341.165 172.562 341.833 172.849 342.642 172.849C343.216 172.849 343.702 172.731 344.101 172.497C344.499 172.263 344.848 171.952 345.146 171.565L346.14 172.339C345.343 173.563 344.147 174.176 342.554 174.176ZM342.352 165.65C341.695 165.65 341.145 165.891 340.699 166.371C340.254 166.846 339.979 167.514 339.873 168.375H344.637V168.252C344.59 167.426 344.367 166.787 343.969 166.336C343.57 165.879 343.031 165.65 342.352 165.65ZM347.766 169.166C347.766 167.684 348.108 166.506 348.794 165.633C349.479 164.754 350.388 164.314 351.519 164.314C352.679 164.314 353.584 164.725 354.234 165.545L354.313 164.49H355.799V173.771C355.799 175.002 355.433 175.972 354.7 176.681C353.974 177.39 352.995 177.744 351.765 177.744C351.079 177.744 350.408 177.598 349.752 177.305C349.096 177.012 348.595 176.61 348.249 176.101L349.093 175.125C349.79 175.986 350.643 176.417 351.65 176.417C352.441 176.417 353.057 176.194 353.496 175.749C353.941 175.304 354.164 174.677 354.164 173.868V173.051C353.514 173.801 352.626 174.176 351.501 174.176C350.388 174.176 349.485 173.728 348.794 172.831C348.108 171.935 347.766 170.713 347.766 169.166ZM349.4 169.351C349.4 170.423 349.62 171.267 350.06 171.882C350.499 172.491 351.114 172.796 351.905 172.796C352.931 172.796 353.684 172.33 354.164 171.398V167.057C353.666 166.148 352.919 165.694 351.923 165.694C351.132 165.694 350.514 166.002 350.068 166.617C349.623 167.232 349.4 168.144 349.4 169.351ZM360.026 174H358.4V164.49H360.026V174ZM358.269 161.968C358.269 161.704 358.348 161.481 358.506 161.3C358.67 161.118 358.91 161.027 359.227 161.027C359.543 161.027 359.783 161.118 359.947 161.3C360.111 161.481 360.193 161.704 360.193 161.968C360.193 162.231 360.111 162.451 359.947 162.627C359.783 162.803 359.543 162.891 359.227 162.891C358.91 162.891 358.67 162.803 358.506 162.627C358.348 162.451 358.269 162.231 358.269 161.968ZM368.508 174C368.414 173.812 368.338 173.479 368.279 172.998C367.523 173.783 366.621 174.176 365.572 174.176C364.635 174.176 363.864 173.912 363.261 173.385C362.663 172.852 362.364 172.178 362.364 171.363C362.364 170.373 362.739 169.605 363.489 169.061C364.245 168.51 365.306 168.234 366.671 168.234H368.253V167.487C368.253 166.919 368.083 166.468 367.743 166.134C367.403 165.794 366.902 165.624 366.24 165.624C365.66 165.624 365.174 165.771 364.781 166.063C364.389 166.356 364.192 166.711 364.192 167.127H362.558C362.558 166.652 362.725 166.195 363.059 165.756C363.398 165.311 363.855 164.959 364.43 164.701C365.01 164.443 365.646 164.314 366.337 164.314C367.433 164.314 368.291 164.59 368.912 165.141C369.533 165.686 369.855 166.438 369.879 167.399V171.776C369.879 172.649 369.99 173.344 370.213 173.859V174H368.508ZM365.81 172.761C366.319 172.761 366.803 172.629 367.26 172.365C367.717 172.102 368.048 171.759 368.253 171.337V169.386H366.979C364.986 169.386 363.99 169.969 363.99 171.135C363.99 171.645 364.16 172.043 364.5 172.33C364.84 172.617 365.276 172.761 365.81 172.761ZM369.633 160.781C369.633 161.414 369.451 161.927 369.088 162.319C368.73 162.712 368.282 162.908 367.743 162.908C367.503 162.908 367.295 162.879 367.119 162.82C366.943 162.762 366.712 162.642 366.425 162.46C366.144 162.278 365.938 162.17 365.81 162.135C365.687 162.094 365.543 162.073 365.379 162.073C365.139 162.073 364.934 162.167 364.764 162.354C364.594 162.536 364.509 162.771 364.509 163.058L363.419 162.996C363.419 162.369 363.595 161.851 363.946 161.44C364.304 161.03 364.755 160.825 365.3 160.825C365.505 160.825 365.689 160.854 365.854 160.913C366.018 160.972 366.24 161.086 366.521 161.256C366.803 161.426 367.017 161.537 367.163 161.59C367.315 161.643 367.482 161.669 367.664 161.669C367.916 161.669 368.124 161.569 368.288 161.37C368.458 161.171 368.543 160.939 368.543 160.676L369.633 160.781ZM371.997 169.157C371.997 168.226 372.179 167.388 372.542 166.644C372.911 165.899 373.421 165.325 374.071 164.921C374.728 164.517 375.475 164.314 376.312 164.314C377.607 164.314 378.653 164.763 379.45 165.659C380.253 166.556 380.654 167.748 380.654 169.236V169.351C380.654 170.276 380.476 171.108 380.118 171.847C379.767 172.579 379.26 173.15 378.598 173.561C377.941 173.971 377.186 174.176 376.33 174.176C375.041 174.176 373.995 173.728 373.192 172.831C372.396 171.935 371.997 170.748 371.997 169.271V169.157ZM373.632 169.351C373.632 170.405 373.875 171.252 374.361 171.891C374.854 172.529 375.51 172.849 376.33 172.849C377.156 172.849 377.812 172.526 378.299 171.882C378.785 171.231 379.028 170.323 379.028 169.157C379.028 168.114 378.779 167.271 378.281 166.626C377.789 165.976 377.133 165.65 376.312 165.65C375.51 165.65 374.862 165.97 374.37 166.608C373.878 167.247 373.632 168.161 373.632 169.351ZM382.729 173.147C382.729 172.866 382.811 172.632 382.975 172.444C383.145 172.257 383.396 172.163 383.73 172.163C384.064 172.163 384.316 172.257 384.486 172.444C384.662 172.632 384.75 172.866 384.75 173.147C384.75 173.417 384.662 173.643 384.486 173.824C384.316 174.006 384.064 174.097 383.73 174.097C383.396 174.097 383.145 174.006 382.975 173.824C382.811 173.643 382.729 173.417 382.729 173.147Z" fill="white"/>
<path d="M244.274 140.922C244.028 142.246 243.428 143.295 242.473 144.068C241.523 144.842 240.384 145.211 239.054 145.176C238.263 145.158 237.571 144.965 236.979 144.596C236.388 144.221 235.928 143.685 235.6 142.987C235.271 142.284 235.09 141.508 235.055 140.658C235.031 140.178 235.052 139.709 235.116 139.252L235.266 138.197C235.541 136.275 236.215 134.761 237.287 133.653C238.365 132.54 239.675 131.998 241.216 132.027C242.417 132.051 243.369 132.44 244.072 133.196C244.775 133.946 245.147 134.989 245.188 136.325H243.545C243.469 134.532 242.766 133.565 241.436 133.425L241.146 133.407C240.038 133.378 239.112 133.791 238.368 134.646C237.63 135.496 237.152 136.659 236.936 138.136L236.742 139.463L236.689 140.236C236.654 141.314 236.845 142.173 237.261 142.812C237.683 143.444 238.307 143.772 239.133 143.796C240.023 143.825 240.759 143.611 241.339 143.154C241.925 142.697 242.37 141.962 242.675 140.948L244.274 140.922ZM253.45 141.66H248.265L246.516 145H244.749L251.701 132.203H253.151L255.683 145H254.057L253.45 141.66ZM248.994 140.271H253.204L252.141 134.304L248.994 140.271ZM259.356 143.62H265.245L264.999 145H257.458L259.682 132.203H261.343L259.356 143.62ZM276.126 140.922C275.88 142.246 275.279 143.295 274.324 144.068C273.375 144.842 272.235 145.211 270.905 145.176C270.114 145.158 269.423 144.965 268.831 144.596C268.239 144.221 267.779 143.685 267.451 142.987C267.123 142.284 266.941 141.508 266.906 140.658C266.883 140.178 266.903 139.709 266.968 139.252L267.117 138.197C267.393 136.275 268.066 134.761 269.139 133.653C270.217 132.54 271.526 131.998 273.067 132.027C274.269 132.051 275.221 132.44 275.924 133.196C276.627 133.946 276.999 134.989 277.04 136.325H275.396C275.32 134.532 274.617 133.565 273.287 133.425L272.997 133.407C271.89 133.378 270.964 133.791 270.22 134.646C269.481 135.496 269.004 136.659 268.787 138.136L268.594 139.463L268.541 140.236C268.506 141.314 268.696 142.173 269.112 142.812C269.534 143.444 270.158 143.772 270.984 143.796C271.875 143.825 272.61 143.611 273.19 143.154C273.776 142.697 274.222 141.962 274.526 140.948L276.126 140.922ZM271.274 145.079L271.09 145.562C271.846 145.732 272.212 146.21 272.188 146.995C272.171 147.593 271.907 148.059 271.397 148.393C270.888 148.727 270.193 148.902 269.314 148.92L269.35 147.971C270.322 147.936 270.855 147.622 270.949 147.03C271.02 146.614 270.75 146.371 270.141 146.301L269.736 146.248L270.141 145.079H271.274ZM285.302 141.66H280.116L278.367 145H276.601L283.553 132.203H285.003L287.534 145H285.908L285.302 141.66ZM280.846 140.271H285.056L283.992 134.304L280.846 140.271ZM289.31 145L291.533 132.203L294.855 132.212C295.898 132.212 296.795 132.473 297.545 132.994C298.301 133.516 298.843 134.236 299.171 135.156C299.499 136.07 299.596 137.096 299.461 138.232L299.373 138.874C299.115 140.737 298.392 142.226 297.202 143.339C296.013 144.446 294.519 145 292.72 145H289.31ZM292.939 133.592L291.199 143.62L292.825 143.629C294.067 143.629 295.119 143.242 295.98 142.469C296.848 141.695 297.41 140.635 297.668 139.287C297.873 138.209 297.943 137.292 297.879 136.536C297.791 135.628 297.489 134.919 296.974 134.409C296.458 133.894 295.767 133.624 294.899 133.601L292.939 133.592ZM305.552 145.176C304.737 145.158 304.028 144.962 303.425 144.587C302.827 144.212 302.355 143.661 302.01 142.935C301.664 142.202 301.474 141.382 301.438 140.474C301.403 139.765 301.482 138.889 301.676 137.846C301.869 136.803 302.203 135.862 302.678 135.024C303.152 134.187 303.729 133.516 304.409 133.012C305.329 132.332 306.378 132.004 307.556 132.027C308.804 132.051 309.788 132.484 310.509 133.328C311.229 134.166 311.616 135.303 311.669 136.738C311.692 137.354 311.628 138.136 311.476 139.085C311.329 140.034 311.062 140.916 310.676 141.73C310.295 142.545 309.809 143.228 309.217 143.778C308.186 144.739 306.964 145.205 305.552 145.176ZM310.043 137.143C310.078 135.988 309.876 135.095 309.437 134.462C308.997 133.823 308.344 133.492 307.477 133.469C306.691 133.445 305.988 133.656 305.367 134.102C304.752 134.547 304.245 135.215 303.847 136.105C303.454 136.99 303.205 138.112 303.1 139.472L303.073 140.043C303.038 141.191 303.243 142.091 303.688 142.741C304.134 143.392 304.781 143.729 305.631 143.752C306.738 143.781 307.655 143.383 308.382 142.557C309.114 141.725 309.601 140.559 309.841 139.059C309.958 138.32 310.025 137.682 310.043 137.143ZM320.142 141.704C320.271 140.767 319.784 140.081 318.683 139.647L317.162 139.094L316.652 138.874C314.941 138.095 314.142 136.999 314.253 135.587C314.312 134.878 314.555 134.251 314.982 133.706C315.41 133.161 315.976 132.742 316.679 132.449C317.388 132.15 318.141 132.01 318.938 132.027C319.711 132.045 320.399 132.218 321.003 132.546C321.612 132.874 322.075 133.334 322.392 133.926C322.708 134.512 322.849 135.174 322.813 135.912L321.152 135.903C321.211 135.118 321.035 134.512 320.625 134.084C320.215 133.65 319.629 133.428 318.867 133.416C318.064 133.404 317.394 133.592 316.854 133.979C316.315 134.365 316.005 134.893 315.923 135.561C315.806 136.434 316.342 137.096 317.531 137.547L318.841 138.013L319.5 138.294C321.152 139.056 321.917 140.187 321.794 141.687C321.729 142.407 321.486 143.031 321.064 143.559C320.643 144.08 320.068 144.484 319.342 144.771C318.621 145.059 317.845 145.193 317.013 145.176C316.21 145.17 315.475 145 314.807 144.666C314.145 144.326 313.641 143.863 313.295 143.277C312.949 142.691 312.797 142.026 312.838 141.282L314.49 141.291C314.438 142.053 314.643 142.659 315.105 143.11C315.574 143.556 316.233 143.784 317.083 143.796C317.933 143.808 318.633 143.623 319.184 143.242C319.734 142.861 320.054 142.349 320.142 141.704ZM335.663 139.349H330.46L329.476 145H327.823L330.047 132.203H337.746L337.5 133.592H331.453L330.697 137.969H335.909L335.663 139.349ZM345.621 139.085H340.242L339.451 143.62H345.709L345.463 145H337.562L339.785 132.203H347.599L347.353 133.592H341.191L340.479 137.705H345.858L345.621 139.085ZM351.888 132.203L354.129 142.627L360 132.203H362.171L359.947 145H358.304L359.183 139.938L360.229 134.787L354.428 145H353.162L350.877 134.585L350.086 140.104L349.233 145H347.581L349.805 132.203H351.888ZM364.676 145H363.032L365.256 132.203H366.899L364.676 145ZM377.297 145H375.697L371.127 135.068L369.404 145H367.743L369.967 132.203H371.566L376.146 142.179L377.877 132.203H379.521L377.297 145ZM382.043 145H380.399L382.623 132.203H384.267L382.043 145ZM394.664 145H393.064L388.494 135.068L386.771 145H385.11L387.334 132.203H388.934L393.513 142.179L395.244 132.203H396.888L394.664 145ZM402.337 145.176C401.522 145.158 400.813 144.962 400.21 144.587C399.612 144.212 399.141 143.661 398.795 142.935C398.449 142.202 398.259 141.382 398.224 140.474C398.188 139.765 398.268 138.889 398.461 137.846C398.654 136.803 398.988 135.862 399.463 135.024C399.938 134.187 400.515 133.516 401.194 133.012C402.114 132.332 403.163 132.004 404.341 132.027C405.589 132.051 406.573 132.484 407.294 133.328C408.015 134.166 408.401 135.303 408.454 136.738C408.478 137.354 408.413 138.136 408.261 139.085C408.114 140.034 407.848 140.916 407.461 141.73C407.08 142.545 406.594 143.228 406.002 143.778C404.971 144.739 403.749 145.205 402.337 145.176ZM406.828 137.143C406.863 135.988 406.661 135.095 406.222 134.462C405.782 133.823 405.129 133.492 404.262 133.469C403.477 133.445 402.773 133.656 402.152 134.102C401.537 134.547 401.03 135.215 400.632 136.105C400.239 136.99 399.99 138.112 399.885 139.472L399.858 140.043C399.823 141.191 400.028 142.091 400.474 142.741C400.919 143.392 401.566 143.729 402.416 143.752C403.523 143.781 404.44 143.383 405.167 142.557C405.899 141.725 406.386 140.559 406.626 139.059C406.743 138.32 406.811 137.682 406.828 137.143ZM416.927 141.704C417.056 140.767 416.569 140.081 415.468 139.647L413.947 139.094L413.438 138.874C411.727 138.095 410.927 136.999 411.038 135.587C411.097 134.878 411.34 134.251 411.768 133.706C412.195 133.161 412.761 132.742 413.464 132.449C414.173 132.15 414.926 132.01 415.723 132.027C416.496 132.045 417.185 132.218 417.788 132.546C418.397 132.874 418.86 133.334 419.177 133.926C419.493 134.512 419.634 135.174 419.599 135.912L417.938 135.903C417.996 135.118 417.82 134.512 417.41 134.084C417 133.65 416.414 133.428 415.652 133.416C414.85 133.404 414.179 133.592 413.64 133.979C413.101 134.365 412.79 134.893 412.708 135.561C412.591 136.434 413.127 137.096 414.316 137.547L415.626 138.013L416.285 138.294C417.938 139.056 418.702 140.187 418.579 141.687C418.515 142.407 418.271 143.031 417.85 143.559C417.428 144.08 416.854 144.484 416.127 144.771C415.406 145.059 414.63 145.193 413.798 145.176C412.995 145.17 412.26 145 411.592 144.666C410.93 144.326 410.426 143.863 410.08 143.277C409.734 142.691 409.582 142.026 409.623 141.282L411.275 141.291C411.223 142.053 411.428 142.659 411.891 143.11C412.359 143.556 413.019 143.784 413.868 143.796C414.718 143.808 415.418 143.623 415.969 143.242C416.52 142.861 416.839 142.349 416.927 141.704Z" fill="white"/>
</svg>
