<svg width="82" height="19" viewBox="0 0 82 19" fill="none" xmlns="http://www.w3.org/2000/svg">
<path d="M9.43829 1.35257C10.9718 1.35257 12.2919 1.62924 13.3986 2.18257C14.521 2.7201 15.3748 3.48686 15.9597 4.48286C16.5605 5.46305 16.8609 6.61714 16.8609 7.94514C16.8609 8.40362 16.8055 8.98067 16.6949 9.67629C16.4103 11.3047 15.7937 12.7512 14.8451 14.016C13.9124 15.2808 12.7188 16.261 11.2643 16.9566C9.82562 17.6522 8.23676 18 6.49771 18H0.260857L3.20143 1.35257H9.43829ZM6.85343 14.5377C8.38695 14.5377 9.65962 14.1109 10.6714 13.2571C11.6832 12.4034 12.3156 11.2098 12.5686 9.67629C12.6476 9.202 12.6871 8.80676 12.6871 8.49057C12.6871 7.32067 12.3314 6.41952 11.62 5.78714C10.9086 5.13895 9.89676 4.81486 8.58457 4.81486H6.64L4.93257 14.5377H6.85343ZM21.5696 1.35257H25.7196L21.9491 7.708H19.2219L21.5696 1.35257ZM31.3744 4.554L30.7815 8.01629H36.2121L35.6667 11.0754H30.2361L29.5721 14.7986H35.7141L35.1449 18H24.9478L27.8884 1.35257H38.0855L37.5164 4.554H31.3744ZM44.9393 0.451429L41.8327 18H37.7776L40.8842 0.451429H44.9393ZM51.9332 0.451429L48.8266 18H44.7715L47.878 0.451429H51.9332ZM60.0179 4.57771C61.7253 4.57771 63.077 5.04409 64.073 5.97686C65.0848 6.89381 65.5907 8.15067 65.5907 9.74743C65.5907 10.2691 65.5512 10.7355 65.4722 11.1466C65.4089 11.5102 65.3141 11.8975 65.1876 12.3086H56.0102C55.9944 12.4034 55.9865 12.5536 55.9865 12.7591C55.9865 13.4548 56.1762 13.9844 56.5556 14.348C56.935 14.7116 57.4409 14.8934 58.0733 14.8934C59.0851 14.8934 59.8598 14.4666 60.3973 13.6129H64.7133C64.1442 14.9567 63.2193 16.0554 61.9387 16.9091C60.6582 17.7629 59.2195 18.1897 57.6227 18.1897C55.9153 18.1897 54.5478 17.7154 53.5202 16.7669C52.5084 15.8183 52.0025 14.5298 52.0025 12.9014C52.0025 12.4113 52.0499 11.9054 52.1447 11.3837C52.3819 10.0083 52.872 8.80676 53.615 7.77914C54.3581 6.75152 55.2829 5.96105 56.3896 5.40771C57.4963 4.85438 58.7057 4.57771 60.0179 4.57771ZM61.4882 10.2454C61.5198 10.0241 61.5356 9.8739 61.5356 9.79486C61.5356 9.16248 61.338 8.68029 60.9427 8.34829C60.5475 8.00048 60.0258 7.82657 59.3776 7.82657C58.682 7.82657 58.0654 8.04 57.5279 8.46686C57.0062 8.8779 56.6267 9.47076 56.3896 10.2454H61.4882ZM76.7889 4.62514C78.1169 4.62514 79.1603 4.99667 79.9192 5.73971C80.678 6.48276 81.0575 7.51829 81.0575 8.84629C81.0575 9.28895 81.01 9.76324 80.9152 10.2691L79.5397 18H75.5083L76.7889 10.8146C76.8363 10.5458 76.86 10.3087 76.86 10.1031C76.86 9.43914 76.6703 8.92533 76.2909 8.56171C75.9273 8.19809 75.4135 8.01629 74.7495 8.01629C73.959 8.01629 73.295 8.26133 72.7575 8.75143C72.2199 9.24152 71.8721 9.92924 71.714 10.8146V10.696L70.4335 18H66.3783L68.7023 4.76743H72.7575L72.4492 6.546C72.9709 5.96105 73.6033 5.49467 74.3463 5.14686C75.1052 4.79905 75.9194 4.62514 76.7889 4.62514Z" fill="white"/>
</svg>
